<svg width="100%" viewBox="0 0 65 32" fill="none" xmlns="http://www.w3.org/2000/svg">
          <path d="M12.3826 5.88371L22.6052 0.248047L32.8278 5.88371V11.5194L22.6052 5.88371L12.3826 11.5194V5.88371Z" fill="#00bdff"></path>
          <path d="M47.8578 1.29563C46.9559 1.06496 45.9637 0.949627 44.8814 0.949627C41.9693 0.949627 39.766 1.71852 38.2713 3.25631C36.8025 4.79409 36.068 6.8701 36.068 9.48434V31.675H41.8276V15.3279H48.9402V10.5608H41.8276V9.56123C41.8276 9.023 41.8792 8.52322 41.9822 8.06189C42.1111 7.60055 42.3044 7.20329 42.5621 6.8701C42.8455 6.53691 43.2192 6.28062 43.6831 6.10121C44.1727 5.89617 44.7654 5.79365 45.4612 5.79365C45.9766 5.79365 46.5307 5.85773 47.1234 5.98588C47.7418 6.0884 48.4422 6.23512 48.9576 6.46578V1.72459C48.9576 1.72459 48.7598 1.50067 47.8578 1.29563Z" fill="#00bdff"></path>
          <path d="M4.26989 31.1368C5.32646 31.47 7.50403 31.5623 9.17908 31.588V26.7589C9.09915 26.7589 9.02283 26.7591 8.9498 26.7592C8.28158 26.761 7.88861 26.7621 7.51691 26.6003C7.10459 26.4209 6.78247 26.1903 6.55054 25.9083C6.34438 25.6264 6.20264 25.2804 6.12533 24.8703C6.04802 24.4603 6.00937 23.9989 6.00937 23.4863V1.01631L0.249756 4.09501V24.6397C0.249756 25.7161 0.352836 26.69 0.558996 27.5615C0.790927 28.4072 1.20325 29.1377 1.79596 29.7528C2.41444 30.3423 3.23908 30.8036 4.26989 31.1368Z" fill="#00bdff"></path>
          <path d="M52.0748 8.62087L57.8344 5.53159V11.0687H64.7503V15.8358H57.8344V22.9481C57.8344 24.1527 58.0405 25.1138 58.4528 25.8314C58.8909 26.5491 59.7542 26.9079 61.0427 26.9079C61.6612 26.9079 62.2926 26.8566 62.9368 26.7541C63.6069 26.626 64.2091 26.4605 64.7503 26.2554V30.9117C64.6581 30.9537 64.5789 30.9904 64.5087 31.0229C64.0644 31.2284 63.9804 31.2673 63.2461 31.4444C62.3957 31.6494 61.352 31.7519 60.115 31.7519C58.543 31.7519 57.2416 31.5469 56.2108 31.1368C55.18 30.7011 54.3554 30.1116 53.7369 29.3684C53.1184 28.5995 52.6804 27.6768 52.4227 26.6003C52.1907 25.5239 52.0748 24.3321 52.0748 23.025V8.62087Z" fill="#00bdff"></path>
          <path fill-rule="evenodd" clip-rule="evenodd" d="M12.0178 21.5073C12.0178 19.5997 12.4603 17.8913 13.3451 16.3823C14.2585 14.8733 15.5287 13.6916 17.1556 12.8375C18.7826 11.9548 20.6522 11.5135 22.7644 11.5135C24.9052 11.5135 26.7605 11.9548 28.3304 12.8375C29.9002 13.6916 31.0991 14.8733 31.9269 16.3823C32.7832 17.8913 33.2113 19.5997 33.2113 21.5073C33.2113 23.415 32.7832 25.1376 31.9269 26.6751C31.0991 28.1841 29.9002 29.38 28.3304 30.2626C26.7605 31.1453 24.8767 31.5866 22.6788 31.5866C20.6237 31.5866 18.7826 31.188 17.1556 30.3908C15.5572 29.5935 14.3013 28.4404 13.3879 26.9314C12.4745 25.4223 12.0178 23.6143 12.0178 21.5073ZM18.0548 21.55C18.0548 23.0306 18.4829 24.2692 19.3392 25.2657C20.1955 26.2338 21.2802 26.7178 22.5932 26.7178C23.9918 26.7178 25.105 26.2338 25.9327 25.2657C26.7605 24.2692 27.1744 23.0306 27.1744 21.55C27.1744 20.0695 26.7605 18.8452 25.9327 17.8771C25.105 16.8806 23.9918 16.3823 22.5932 16.3823C21.2802 16.3823 20.1955 16.8806 19.3392 17.8771C18.4829 18.8452 18.0548 20.0695 18.0548 21.55Z" fill="#00bdff"></path></svg>